<svg width="28" height="36" viewBox="0 0 28 36" fill="none" xmlns="http://www.w3.org/2000/svg">
<path d="M-6.98845 34.0389L-6.78394 1.78958C-6.78057 1.46308 -6.66417 1.14376 -6.44725 0.865987C-6.23034 0.588217 -5.92114 0.362516 -5.55293 0.213175C-5.18472 0.0638349 -4.77144 -0.00348809 -4.35758 0.0184582C-3.94372 0.0404046 -3.54496 0.150781 -3.20421 0.337714L26.2761 16.65C27.4984 17.326 27.4882 18.9349 26.2574 19.5972L-3.42741 35.5343C-3.7698 35.7188 -4.17014 35.8257 -4.58494 35.8434C-4.99974 35.8612 -5.41313 35.7891 -5.7802 35.6349C-6.14726 35.4808 -6.45397 35.2505 -6.66698 34.9691C-6.88 34.6878 -6.99118 34.366 -6.98845 34.0389Z" fill="#D9D9D9"/>
</svg>
