<svg width="31" height="41" viewBox="0 0 31 41" fill="none" xmlns="http://www.w3.org/2000/svg">
<path d="M30.5811 38.5107L30.7856 2.23129C30.7866 1.86397 30.686 1.50319 30.4947 1.1878C30.3035 0.872401 30.0288 0.614328 29.7003 0.441356C29.3717 0.268381 29.0018 0.187061 28.6302 0.206144C28.2587 0.22523 27.8996 0.343994 27.5917 0.549657L0.948302 18.5C-0.156372 19.244 -0.166575 21.0539 0.929612 21.8156L27.3685 40.1446C27.6734 40.3568 28.0313 40.4825 28.4032 40.508C28.7751 40.5336 29.1468 40.4581 29.478 40.2897C29.8091 40.1212 30.0871 39.8664 30.2816 39.5527C30.476 39.2391 30.5797 38.8787 30.5811 38.5107Z" fill="#D9D9D9"/>
</svg>
